# This file uses centimeters as units for non-parametric coordinates.

mtllib MDS.mtl
g default
v -5.333142 3.006820 5.046849
v -4.909817 3.006820 5.046849
v -5.333142 3.566877 4.723502
v -4.909817 3.566877 4.723502
vt 0.500524 0.000000
vt 0.828257 0.000542
vt 0.833266 0.499476
vt 0.506030 0.498994
vn 0.000000 0.499998 0.866026
vn 0.000000 0.499998 0.866026
vn 0.000000 0.499998 0.866026
vn 0.000000 0.499998 0.866026
s off
g Card1 MDS
usemtl blinn3SG
f 1/1/1 2/2/2 4/3/3 3/4/4
g default
v -5.522805 2.246510 5.046849
v -4.732223 2.246510 5.046849
v -5.522805 2.806566 4.723501
v -4.732223 2.806566 4.723501
vt 0.000000 0.000000
vt 0.495742 0.000911
vt 0.499476 0.405665
vt 0.004461 0.404842
vn 0.000000 0.500000 0.866026
vn 0.000000 0.500000 0.866026
vn 0.000000 0.500000 0.866026
vn 0.000000 0.500000 0.866026
s off
g MDS Card2
usemtl blinn3SG
f 5/5/5 6/6/6 8/7/7 7/8/8
g default
v -5.716753 1.464474 5.046849
v -4.539116 1.464474 5.046849
v -5.716753 2.024530 4.723502
v -4.539116 2.024530 4.723502
vt 0.000000 0.404840
vt 0.497173 0.405840
vt 0.499476 0.678754
vt 0.003008 0.677840
vn 0.000000 0.499998 0.866026
vn 0.000000 0.499998 0.866026
vn 0.000000 0.499998 0.866026
vn 0.000000 0.499998 0.866026
s off
g MDS Card3
usemtl blinn3SG
f 9/9/9 10/10/10 12/11/11 11/12/12
g default
v -5.919960 0.643788 5.046849
v -4.322999 0.643788 5.046849
v -5.919960 1.203844 4.723501
v -4.322999 1.203844 4.723501
vt 0.000000 0.677841
vt 0.497932 0.678929
vt 0.499476 0.880786
vt 0.002228 0.879782
vn 0.000000 0.499999 0.866026
vn 0.000000 0.499999 0.866026
vn 0.000000 0.499999 0.866026
vn 0.000000 0.499999 0.866026
s off
g MDS Card4
usemtl blinn3SG
f 13/13/13 14/14/14 16/15/15 15/16/16
g default
v -6.129736 -0.214034 5.046849
v -4.113223 -0.214034 5.046849
v -6.129736 0.346022 4.723501
v -4.113223 0.346022 4.723501
vt 0.500524 0.498988
vt 0.998894 0.500161
vt 1.000000 0.660392
vt 0.502292 0.659300
vn 0.000000 0.500000 0.866026
vn 0.000000 0.500000 0.866026
vn 0.000000 0.500000 0.866026
vn 0.000000 0.500000 0.866026
s off
g MDS Card5
usemtl blinn3SG
f 17/17/17 18/18/18 20/19/19 19/20/20
