# This file uses centimeters as units for non-parametric coordinates.

mtllib tavolo.mtl
g default
v -0.526555 -0.036199 -0.912021
v -0.526555 -0.036199 0.912020
v -0.526556 0.032234 0.912021
v -0.526555 0.032234 -0.912021
v -0.254908 -0.036199 -0.185202
v -0.185202 -0.036199 -0.254908
v -0.199980 0.004831 -0.275249
v -0.275249 0.004831 -0.199980
v -0.206652 0.032234 -0.284433
v -0.284433 0.032234 -0.206652
v -0.299663 -0.036199 -0.097366
v -0.323575 0.004831 -0.105136
v -0.334370 0.032234 -0.108644
v -0.097366 -0.036199 -0.299663
v 0.000000 -0.036199 -0.315084
v 0.000000 0.004831 -0.340227
v -0.105136 0.004831 -0.323575
v -0.315084 -0.036199 0.000000
v -0.340227 0.004831 0.000000
v -0.155816 -0.036199 -0.269881
v 0.000000 0.032234 -0.351578
v -0.108644 0.032234 -0.334371
v -0.351578 0.032234 0.000000
v -0.173863 0.032234 -0.301140
v 0.097366 -0.036199 -0.299663
v 0.105136 0.004831 -0.323575
v -0.299663 -0.036199 0.097366
v -0.323575 0.004831 0.105136
v 0.108644 0.032234 -0.334371
v -0.334370 0.032234 0.108644
v 1.026555 -0.036199 0.000000
v 1.026555 0.032234 0.000000
v 0.185202 -0.036199 -0.254908
v 0.199980 0.004831 -0.275250
v -0.254908 -0.036199 0.185202
v -0.275249 0.004831 0.199980
v 0.206652 0.032234 -0.284433
v -0.284433 0.032234 0.206652
v -0.185202 -0.036199 0.254908
v -0.199980 0.004831 0.275249
v 0.254908 -0.036199 -0.185202
v 0.275250 0.004831 -0.199980
v -0.206652 0.032234 0.284433
v 0.284433 0.032234 -0.206652
v 0.299663 -0.036199 -0.097366
v 0.323575 0.004831 -0.105136
v 0.334371 0.032234 -0.108644
v -0.000000 -0.036199 0.315084
v -0.097366 -0.036199 0.299663
v -0.105136 0.004831 0.323575
v -0.000000 0.004831 0.340227
v 0.315084 -0.036199 0.000000
v 0.340227 0.004831 0.000000
v -0.108644 0.032234 0.334370
v -0.000000 0.032234 0.351578
v 0.351578 0.032234 0.000000
v 0.299663 -0.036199 0.097366
v 0.323575 0.004831 0.105136
v 0.097366 -0.036199 0.299663
v 0.105136 0.004831 0.323575
v 0.334370 0.032234 0.108644
v 0.108644 0.032234 0.334370
v 0.254908 -0.036199 0.185202
v 0.275249 0.004831 0.199980
v 0.185202 -0.036199 0.254908
v 0.199980 0.004831 0.275249
v 0.284432 0.032234 0.206652
v 0.206652 0.032234 0.284432
v -0.155816 -0.036199 0.269881
v -0.173863 0.032234 0.301140
v 0.309738 0.032234 0.536483
v 0.309738 -0.036199 0.536483
v 0.309738 0.032234 -0.536483
v 0.309738 -0.036199 -0.536483
v -0.619477 0.032234 -0.000000
v -0.619477 -0.036199 -0.000000
v 1.026556 0.032234 0.107297
v 1.026556 -0.036199 0.107297
v 1.026556 -0.036199 -0.107297
v 1.026556 0.032234 -0.107297
v -0.433634 0.032234 -0.965669
v -0.433634 -0.036199 -0.965669
v -0.619477 -0.036199 -0.858373
v -0.619477 0.032234 -0.858373
v -0.619477 0.032234 0.858373
v -0.619477 -0.036199 0.858373
v -0.433634 -0.036199 0.965669
v -0.433634 0.032234 0.965669
vt 0.375000 0.312500
vt 0.458333 0.312500
vt 0.458333 0.688440
vt 0.375000 0.688440
vt 0.350000 0.309845
vt 0.300000 0.309845
vt 0.300000 0.350000
vt 0.350000 0.350000
vt 0.300000 0.374752
vt 0.350000 0.374752
vt 0.400000 0.309845
vt 0.400000 0.350000
vt 0.400000 0.374752
vt 0.250000 0.309845
vt 0.200000 0.309845
vt 0.200000 0.350000
vt 0.250000 0.350000
vt 0.450000 0.309845
vt 0.450000 0.350000
vt 0.283392 0.309845
vt 0.200000 0.374752
vt 0.250000 0.374752
vt 0.450000 0.374752
vt 0.283337 0.374752
vt 0.150000 0.309845
vt 0.150000 0.350000
vt 0.500000 0.309845
vt 0.500000 0.350000
vt 0.150000 0.374752
vt 0.500000 0.374752
vt 0.541667 0.312500
vt 0.625000 0.312500
vt 0.625000 0.688440
vt 0.541667 0.688440
vt 0.100000 0.309845
vt 0.100000 0.350000
vt 0.550000 0.309845
vt 0.550000 0.350000
vt 0.100000 0.374752
vt 0.550000 0.374752
vt 0.600000 0.309845
vt 0.600000 0.350000
vt 0.050000 0.309845
vt 0.050000 0.350000
vt 0.600000 0.374752
vt 0.050000 0.374752
vt 0.000000 0.309845
vt 0.000000 0.350000
vt 0.000000 0.374752
vt 0.700000 0.309845
vt 0.650000 0.309845
vt 0.650000 0.350000
vt 0.700000 0.350000
vt 1.000000 0.309845
vt 0.950000 0.309845
vt 0.950000 0.350000
vt 1.000000 0.350000
vt 0.650000 0.374752
vt 0.700000 0.374752
vt 0.950000 0.374752
vt 1.000000 0.374752
vt 0.900000 0.309845
vt 0.900000 0.350000
vt 0.750000 0.309845
vt 0.750000 0.350000
vt 0.900000 0.374752
vt 0.750000 0.374752
vt 0.850000 0.309845
vt 0.850000 0.350000
vt 0.800000 0.309845
vt 0.800000 0.350000
vt 0.850000 0.374752
vt 0.800000 0.374752
vt 0.616608 0.309845
vt 0.616663 0.374751
vt 0.421875 0.291566
vt 0.421875 0.020934
vt 0.475654 0.109779
vt 0.471062 0.112486
vt 0.460171 0.124249
vt 0.453178 0.138532
vt 0.450768 0.153939
vt 0.453178 0.168959
vt 0.460171 0.182124
vt 0.471062 0.192144
vt 0.475654 0.194117
vt 0.421875 0.979066
vt 0.421875 0.708434
vt 0.472834 0.792620
vt 0.467711 0.795641
vt 0.455557 0.808766
vt 0.447755 0.824704
vt 0.445066 0.841895
vt 0.447755 0.858655
vt 0.455557 0.873345
vt 0.467711 0.884526
vt 0.472834 0.886726
vt 0.656250 0.156250
vt 0.549232 0.151969
vt 0.546822 0.137713
vt 0.539829 0.124660
vt 0.528938 0.114088
vt 0.515213 0.107030
vt 0.500000 0.104179
vt 0.484787 0.105813
vt 0.656250 0.843750
vt 0.483024 0.892686
vt 0.500000 0.896240
vt 0.516976 0.894044
vt 0.532289 0.886313
vt 0.544443 0.873804
vt 0.552245 0.857741
vt 0.554934 0.839697
vt 0.484787 0.199458
vt 0.500000 0.202643
vt 0.515213 0.200675
vt 0.528938 0.193746
vt 0.539829 0.182536
vt 0.546822 0.168140
vt 0.552245 0.823790
vt 0.544443 0.809225
vt 0.532289 0.797428
vt 0.516976 0.789553
vt 0.500000 0.786372
vt 0.483024 0.788195
vt 0.500000 0.688440
vt 0.500000 0.312500
vt 0.583333 0.688440
vt 0.583333 0.312500
vt 0.416667 0.688440
vt 0.416667 0.312500
vt 0.533333 0.688440
vt 0.533333 0.312500
vt 0.550000 0.312500
vt 0.550000 0.688440
vt 0.616667 0.688440
vt 0.616667 0.312500
vt 0.383333 0.312500
vt 0.383333 0.688440
vt 0.450000 0.688440
vt 0.450000 0.312500
vt 0.466667 0.312500
vt 0.466667 0.688440
vn 0.689800 0.522498 0.501170
vn 0.501170 0.522498 0.689800
vn 0.520152 0.465715 0.715927
vn 0.715927 0.465715 0.520152
vn 0.543044 0.382684 0.747433
vn 0.747434 0.382684 0.543043
vn 0.810909 0.522498 0.263480
vn 0.841623 0.465715 0.273460
vn 0.878662 0.382683 0.285495
vn 0.263480 0.522499 0.810909
vn 0.000000 0.522499 0.852640
vn -0.000000 0.465715 0.884935
vn 0.273460 0.465715 0.841623
vn 0.852640 0.522499 0.000000
vn 0.884935 0.465714 0.000000
vn 0.388390 0.517798 0.762258
vn -0.000000 0.382684 0.923880
vn 0.285495 0.382684 0.878661
vn 0.923880 0.382683 -0.000000
vn 0.420187 0.378652 0.824661
vn -0.263480 0.522499 0.810909
vn -0.273460 0.465715 0.841623
vn 0.810909 0.522499 -0.263480
vn 0.841623 0.465715 -0.273460
vn -0.285494 0.382684 0.878662
vn 0.878662 0.382683 -0.285495
vn -0.501169 0.522499 0.689801
vn -0.520152 0.465715 0.715927
vn 0.689801 0.522499 -0.501169
vn 0.715927 0.465715 -0.520152
vn -0.543043 0.382684 0.747434
vn 0.747434 0.382683 -0.543043
vn 0.501169 0.522499 -0.689800
vn 0.520152 0.465715 -0.715927
vn -0.689800 0.522499 0.501170
vn -0.715927 0.465715 0.520152
vn 0.543043 0.382683 -0.747434
vn -0.747434 0.382684 0.543043
vn -0.810909 0.522499 0.263480
vn -0.841623 0.465715 0.273459
vn -0.878662 0.382684 0.285494
vn -0.000000 0.522499 -0.852640
vn 0.263480 0.522499 -0.810909
vn 0.273460 0.465715 -0.841623
vn 0.000000 0.465715 -0.884935
vn -0.852640 0.522498 -0.000001
vn -0.884935 0.465715 -0.000001
vn 0.285495 0.382684 -0.878662
vn 0.000000 0.382683 -0.923880
vn -0.923879 0.382684 -0.000001
vn -0.810909 0.522498 -0.263480
vn -0.841623 0.465715 -0.273460
vn -0.263480 0.522499 -0.810909
vn -0.273460 0.465715 -0.841623
vn -0.878662 0.382684 -0.285495
vn -0.285494 0.382683 -0.878662
vn -0.689800 0.522499 -0.501169
vn -0.715927 0.465715 -0.520152
vn -0.501169 0.522499 -0.689800
vn -0.520152 0.465715 -0.715927
vn -0.747434 0.382683 -0.543043
vn -0.543043 0.382683 -0.747434
vn 0.388390 0.517799 -0.762258
vn 0.420187 0.378651 -0.824661
vn 0.000000 -1.000000 0.000000
vn 0.000000 -1.000000 -0.000000
vn 0.000000 -1.000000 -0.000000
vn 0.000000 -1.000000 0.000000
vn 0.000000 -1.000000 0.000000
vn 0.000000 -1.000000 0.000000
vn 0.000000 -1.000000 0.000000
vn 0.000000 -1.000000 0.000000
vn 0.000000 -1.000000 0.000000
vn 0.000000 -1.000000 0.000000
vn 0.000000 -1.000000 0.000000
vn -0.000000 1.000000 0.000000
vn -0.000000 1.000000 -0.000000
vn 0.000000 1.000000 -0.000000
vn 0.000000 1.000000 0.000000
vn 0.000000 1.000000 0.000000
vn 0.000000 1.000000 0.000000
vn 0.000000 1.000000 0.000000
vn 0.000000 1.000000 0.000000
vn 0.000000 1.000000 0.000000
vn 0.000000 1.000000 0.000000
vn 0.000000 1.000000 0.000000
vn 0.000000 -1.000000 -0.000000
vn 0.000000 -1.000000 0.000000
vn 0.000000 -1.000000 -0.000000
vn 0.000000 -1.000000 -0.000000
vn 0.000000 -1.000000 -0.000000
vn 0.000000 -1.000000 -0.000000
vn 0.000000 -1.000000 -0.000000
vn 0.000000 -1.000000 -0.000000
vn 0.000000 1.000000 -0.000000
vn -0.000000 1.000000 0.000000
vn -0.000000 1.000000 0.000000
vn -0.000000 1.000000 0.000000
vn -0.000000 1.000000 0.000000
vn -0.000000 1.000000 0.000000
vn -0.000000 1.000000 0.000000
vn -0.000000 1.000000 0.000000
vn 0.000000 -1.000000 0.000000
vn 0.000000 -1.000000 0.000000
vn 0.000000 -1.000000 0.000000
vn 0.000000 -1.000000 0.000000
vn 0.000000 -1.000000 0.000000
vn 0.000000 -1.000000 0.000000
vn 0.000000 1.000000 -0.000000
vn 0.000000 1.000000 -0.000000
vn 0.000000 1.000000 -0.000000
vn 0.000000 1.000000 -0.000000
vn 0.000000 1.000000 -0.000000
vn 0.000000 1.000000 -0.000000
vn 0.506773 0.000000 0.862079
vn 0.506773 0.000000 0.862079
vn 0.513700 0.000000 0.857970
vn 0.513700 0.000000 0.857970
vn 0.513700 0.000000 -0.857970
vn 0.513700 0.000000 -0.857970
vn 0.506774 0.000000 -0.862079
vn 0.506774 0.000000 -0.862079
vn 0.000000 1.000000 -0.000000
vn 0.000000 1.000000 -0.000000
vn 0.000000 1.000000 -0.000000
vn 0.500000 0.000000 -0.866025
vn 0.500000 0.000000 -0.866025
vn 0.000000 -1.000000 -0.000000
vn 0.000000 -1.000000 -0.000000
vn 0.000000 -1.000000 -0.000000
vn -1.000000 0.000000 0.000000
vn -1.000000 0.000000 0.000000
vn -1.000000 -0.000001 -0.000000
vn -1.000000 -0.000001 -0.000000
vn -0.000000 1.000000 0.000000
vn -0.000000 1.000000 0.000000
vn -0.000000 1.000000 0.000000
vn -1.000000 -0.000002 -0.000000
vn -1.000000 -0.000002 -0.000000
vn 0.000000 -1.000000 0.000000
vn 0.000000 -1.000000 0.000000
vn 0.000000 -1.000000 0.000000
vn 0.000000 -1.000000 0.000000
vn 0.000000 -1.000000 0.000000
vn 0.000000 -1.000000 0.000000
vn 0.500000 0.000000 0.866026
vn 0.500000 0.000000 0.866025
vn 0.000000 1.000000 -0.000000
vn 0.000000 1.000000 -0.000000
vn 0.000000 1.000000 -0.000000
vn -0.500000 -0.000004 0.866025
vn -0.500000 -0.000004 0.866025
vn -0.500000 -0.000004 0.866025
vn -0.500000 -0.000004 0.866025
vn -0.500000 -0.000004 0.866025
vn -0.500000 -0.000004 0.866025
vn -0.500000 -0.000000 -0.866025
vn -0.500000 -0.000000 -0.866025
vn -0.500000 -0.000000 -0.866025
vn -0.500000 -0.000000 -0.866025
vn -0.500000 -0.000000 -0.866025
vn -0.500000 -0.000000 -0.866025
vn 1.000000 -0.000001 0.000000
vn 1.000000 -0.000001 0.000000
vn 1.000000 -0.000001 0.000000
vn 1.000000 -0.000001 0.000000
vn 1.000000 -0.000001 0.000000
vn 1.000000 -0.000001 0.000000
s 1
g pCylinder2
usemtl initialShadingGroup
f 5/5/1 6/6/2 7/7/3 8/8/4
f 9/9/5 10/10/6 8/8/4 7/7/3
f 11/11/7 5/5/1 8/8/4 12/12/8
f 10/10/6 13/13/9 12/12/8 8/8/4
f 14/14/10 15/15/11 16/16/12 17/17/13
f 18/18/14 11/11/7 12/12/8 19/19/15
f 6/6/2 20/20/16 14/14/10 17/17/13 7/7/3
f 21/21/17 22/22/18 17/17/13 16/16/12
f 13/13/9 23/23/19 19/19/15 12/12/8
f 17/17/13 22/22/18 24/24/20 9/9/5 7/7/3
f 15/15/11 25/25/21 26/26/22 16/16/12
f 27/27/23 18/18/14 19/19/15 28/28/24
f 29/29/25 21/21/17 16/16/12 26/26/22
f 23/23/19 30/30/26 28/28/24 19/19/15
f 25/25/21 33/35/27 34/36/28 26/26/22
f 35/37/29 27/27/23 28/28/24 36/38/30
f 37/39/31 29/29/25 26/26/22 34/36/28
f 30/30/26 38/40/32 36/38/30 28/28/24
f 39/41/33 35/37/29 36/38/30 40/42/34
f 33/35/27 41/43/35 42/44/36 34/36/28
f 38/40/32 43/45/37 40/42/34 36/38/30
f 44/46/38 37/39/31 34/36/28 42/44/36
f 41/43/35 45/47/39 46/48/40 42/44/36
f 47/49/41 44/46/38 42/44/36 46/48/40
f 48/50/42 49/51/43 50/52/44 51/53/45
f 45/54/39 52/55/46 53/56/47 46/57/40
f 54/58/48 55/59/49 51/53/45 50/52/44
f 56/60/50 47/61/41 46/57/40 53/56/47
f 52/55/46 57/62/51 58/63/52 53/56/47
f 59/64/53 48/50/42 51/53/45 60/65/54
f 61/66/55 56/60/50 53/56/47 58/63/52
f 55/59/49 62/67/56 60/65/54 51/53/45
f 57/62/51 63/68/57 64/69/58 58/63/52
f 65/70/59 59/64/53 60/65/54 66/71/60
f 63/68/57 65/70/59 66/71/60 64/69/58
f 67/72/61 61/66/55 58/63/52 64/69/58
f 62/67/56 68/73/62 66/71/60 60/65/54
f 68/73/62 67/72/61 64/69/58 66/71/60
f 49/51/43 69/74/63 39/41/33 40/42/34 50/52/44
f 40/42/34 43/45/37 70/75/64 54/58/48 50/52/44
s 3
f 2/76/65 1/77/66 20/78/67 6/79/68 5/80/69 11/81/70 18/82/71 27/83/72 35/84/73 39/85/74 69/86/75
s 4
f 4/87/76 3/88/77 70/89/78 43/90/79 38/91/80 30/92/81 23/93/82 13/94/83 10/95/84 9/96/85 24/97/86
s 3
f 1/77/66 31/98/87 52/99/88 45/100/89 41/101/90 33/102/91 25/103/92 15/104/93 14/105/94 20/78/67
s 4
f 32/106/95 4/87/76 24/97/86 22/107/96 21/108/97 29/109/98 37/110/99 44/111/100 47/112/101 56/113/102
s 3
f 31/98/87 2/76/65 69/86/75 49/114/103 48/115/104 59/116/105 65/117/106 63/118/107 57/119/108 52/99/88
s 4
f 3/88/77 32/106/95 56/113/102 61/120/109 67/121/110 68/122/111 62/123/112 55/124/113 54/125/114 70/89/78
s 5
f 71/126/115 72/127/116 78/133/117 77/132/118
s 6
f 80/135/119 79/134/120 74/129/121 73/128/122
s 4
f 4/33/76 32/34/95 80/135/123 73/128/124 81/136/125
s 6
f 73/128/122 74/129/121 82/137/126 81/136/127
s 3
f 31/31/87 1/32/66 82/137/128 74/129/129 79/134/130
s 7
f 84/139/131 83/138/132 76/131/133 75/130/134
s 4
f 3/3/77 4/4/76 84/139/135 75/130/136 85/140/137
s 7
f 75/130/134 76/131/133 86/141/138 85/140/139
s 3
f 1/1/66 2/2/65 86/141/140 76/131/141 83/138/142
f 2/2/65 31/31/87 78/133/143 72/127/144 87/142/145
s 5
f 88/143/146 87/142/147 72/127/116 71/126/115
s 4
f 32/34/95 3/3/77 88/143/148 71/126/149 77/132/150
s off
f 85/140/151 86/141/152 2/2/153 87/142/154 88/143/155 3/3/156
f 81/136/157 82/137/158 1/1/159 83/138/160 84/139/161 4/33/162
f 77/132/163 78/133/164 31/31/165 79/134/166 80/135/167 32/34/168
